<svg width="840" height="739" viewBox="0 0 840 739" fill="none" xmlns="http://www.w3.org/2000/svg">
<path d="M263.176 186.875C263.176 356.539 214.835 413.934 98.1053 444.85C61.81 454.463 29.1935 464.127 0 473.807V739H363.529C397.606 696.809 411.481 637.02 458.369 512.154C481.582 450.338 516.074 407.473 572.189 373.748C630.386 338.772 696.347 338.772 765.837 338.772C812.189 338.772 840 304.371 840 268.819C840 231.42 806.009 198.925 765.837 198.925C765.837 198.925 757.493 199.019 717.94 198.925C684.077 198.925 639.444 184.073 627.811 132.912C612.36 64.9577 544.378 0.332858 451.159 0.00175857C348.948 -0.361281 263.176 55.4641 263.176 186.875Z" />
<style>
        path { fill: #000; }
        @media (prefers-color-scheme: dark) {
            path { fill: #FFF; }
        }
    </style>
</svg>
